<?xml version="1.0" encoding="UTF-8" standalone="no"?>
<!-- Created with Inkscape (http://www.inkscape.org/) -->

<svg
   width="242.54173mm"
   height="61.669685mm"
   viewBox="0 0 242.54173 61.669685"
   version="1.1"
   id="svg1"
   xml:space="preserve"
   xmlns="http://www.w3.org/2000/svg"
   xmlns:svg="http://www.w3.org/2000/svg"><defs
     id="defs1" /><g
     id="layer1"
     style="fill:#000000"
     transform="translate(-9.1196229,-91.389269)"><g
       id="g17"
       transform="matrix(0.26458333,0,0,0.26458333,-6.4907943,75.620102)"
       style="fill:#000000">
	<g
   id="g10"
   style="fill:#000000">
		<g
   id="g9"
   style="fill:#000000">
			<g
   id="g8"
   style="fill:#000000">
				<g
   id="g1"
   style="fill:#000000">
					<path
   class="st0"
   d="M 176.2,118.2 V 59.6 h -58.6 v 22.2 c 0,4 -3.3,7.3 -7.3,7.3 H 59 v 58.4 h 51.3 c 4,0 7.3,3.3 7.3,7.3 v 14.7 c 0,4 -3.3,7.3 -7.3,7.3 H 59 v 58.6 h 58.6 v -22 c 0,-4 3.3,-7.3 7.3,-7.3 h 51.3 v -58.6 h -51.3 c -4,0 -7.3,-3.3 -7.3,-7.3 v -14.7 c 0,-4 3.3,-7.3 7.3,-7.3 z"
   id="path1"
   style="fill:#000000" />
				</g>
				<g
   id="g7"
   style="fill:#000000">
					<g
   id="g3"
   style="fill:#000000">
						<g
   id="g2"
   style="fill:#000000">
							<path
   class="st0"
   d="m 393.9,208.1 h -7.7 c -23.2,0 -42.1,-18.9 -42.1,-42.1 v -7.7 c 0,-23.2 18.9,-42.1 42.1,-42.1 h 7.7 c 23.2,0 42.1,18.9 42.1,42.1 v 7.7 c 0,23.2 -18.9,42.1 -42.1,42.1 z M 386.2,138 c -11.2,0 -20.4,9.1 -20.4,20.4 v 7.7 c 0,11.2 9.1,20.4 20.4,20.4 h 7.7 c 11.2,0 20.4,-9.1 20.4,-20.4 v -7.7 c 0,-11.2 -9.1,-20.4 -20.4,-20.4 z"
   id="path2"
   style="fill:#000000" />
						</g>
						<path
   class="st0"
   d="m 223.5,206.3 c -4.1,-1.2 -19.1,-6.3 -20.2,-25.6 h 25.1 c 0.7,2.8 2,5 4,6.5 2.1,1.6 4.9,2.3 8.6,2.3 h 9.3 c 3.3,0 6,-0.7 7.9,-2.2 1.9,-1.5 2.9,-3.7 2.9,-6.4 0,-3 -1.3,-5 -3.2,-6.2 -1.8,-1.2 -4.1,-1.7 -6.2,-1.9 L 233,170.9 v 0 c -8.6,-0.7 -15.4,-3.5 -19.9,-8 -4.5,-4.5 -7,-10.8 -7,-18.6 0,-20.2 17.4,-25.2 21.4,-26.3 3.9,-1.1 8.9,-1.6 16.2,-1.6 14.3,0 21.9,2.4 28.5,7 6.6,4.6 10.3,11.4 10.9,20.2 H 258 c -0.5,-2.8 -1.7,-4.9 -3.6,-6.4 -2.1,-1.5 -4.9,-2.2 -8.5,-2.2 h -6.6 c -3.1,0 -5.6,0.7 -7.4,2.2 -1.8,1.5 -2.8,3.6 -2.8,6.2 0,2.4 0.8,4.3 2.5,5.8 1.6,1.4 4,2.3 7,2.6 v 0 l 18.9,1.9 v 0 c 8.1,0.7 14.7,3.2 19.2,7.2 5,4.5 7.5,10.8 7.5,18.8 0,9.7 -3.1,16.7 -9.6,21.4 -6.6,4.7 -17,7.1 -31.7,7.1 -9.7,-0.1 -15.3,-0.7 -19.4,-1.9 z"
   id="path3"
   style="fill:#000000" />
					</g>
					<g
   id="g5"
   style="fill:#000000">
						<path
   class="st0"
   d="m 511.9,88.7 h 23.4 V 112 H 515 c -1.7,0 -3.1,-1.4 -3.1,-3.1 z"
   id="path4"
   style="fill:#000000" />
						<path
   class="st0"
   d="m 510.3,140.2 h -4.7 v -21.9 h 29.7 v 87.8 h -21.9 v -62.9 c -0.1,-1.7 -1.4,-3 -3.1,-3 z"
   id="path5"
   style="fill:#000000" />
					</g>
					<path
   class="st0"
   d="m 467.3,143.2 v 62.9 h -21.9 v -57.4 c 0,-16.8 13.6,-30.4 30.4,-30.4 h 22.6 v 21.9 h -28 c -1.7,0 -3.1,1.3 -3.1,3 z"
   id="path6"
   style="fill:#000000" />
					<path
   class="st0"
   d="m 337.7,184.4 h -13.3 c -5.6,0 -10.1,-4.5 -10.1,-10.1 v -31.1 c 0,-1.7 1.4,-3.1 3.1,-3.1 h 20.3 v -21.9 h -20.3 c -1.7,0 -3.1,-1.4 -3.1,-3.1 V 94.8 h -21.9 v 79.5 c 0,17.5 14.2,31.8 31.8,31.8 h 13.6 v -21.7 z"
   id="path7"
   style="fill:#000000" />
				</g>
			</g>
		</g>
	</g>
	
</g><g
       id="g18"><text
         xml:space="preserve"
         style="font-size:31.75px;font-family:Orbitron;-inkscape-font-specification:Orbitron;fill:#000000;stroke-width:0.264583"
         x="136.72636"
         y="129.76187"
         id="text1"><tspan
           id="tspan1"
           style="font-size:31.75px;fill:#000000;stroke-width:0.264583"
           x="136.72636"
           y="129.76187">m</tspan></text><text
         xml:space="preserve"
         style="font-size:31.75px;font-family:Orbitron;-inkscape-font-specification:Orbitron;fill:#000000;stroke-width:0.264583"
         x="167.21683"
         y="130.20535"
         id="text2"><tspan
           id="tspan2"
           style="stroke-width:0.264583"
           x="167.21683"
           y="130.20535">a</tspan></text><text
         xml:space="preserve"
         style="font-size:31.75px;font-family:Orbitron;-inkscape-font-specification:Orbitron;fill:#000000;stroke-width:0.264583"
         x="188.45976"
         y="130.17165"
         id="text3"><tspan
           id="tspan3"
           style="stroke-width:0.264583"
           x="188.45976"
           y="130.17165">g</tspan></text><text
         xml:space="preserve"
         style="font-size:31.75px;font-family:Orbitron;-inkscape-font-specification:Orbitron;fill:#000000;stroke-width:0.264583"
         x="210.11423"
         y="130.14326"
         id="text4"><tspan
           id="tspan4"
           style="stroke-width:0.264583"
           x="210.11423"
           y="130.14326">e</tspan></text><text
         xml:space="preserve"
         style="font-size:31.75px;font-family:Orbitron;-inkscape-font-specification:Orbitron;fill:#000000;stroke-width:0.264583"
         x="231.37311"
         y="131.14554"
         id="text5"><tspan
           id="tspan5"
           style="stroke-width:0.264583"
           x="231.37311"
           y="131.14554">s</tspan></text></g><g
       id="g14"><text
         xml:space="preserve"
         style="font-size:17.6389px;font-family:Orbitron;-inkscape-font-specification:Orbitron;fill:#000000;stroke-width:0.264583"
         x="134.09738"
         y="148.64546"
         id="text6"><tspan
           id="tspan6"
           style="font-size:17.6389px;stroke-width:0.264583"
           x="134.09738"
           y="148.64546">b</tspan></text><text
         xml:space="preserve"
         style="font-size:17.6389px;font-family:Orbitron;-inkscape-font-specification:Orbitron;fill:#000000;stroke-width:0.264583"
         x="146.76863"
         y="149.00201"
         id="text7"><tspan
           id="tspan7"
           style="font-size:17.6389px;stroke-width:0.264583"
           x="146.76863"
           y="149.00201">y</tspan></text></g><g
       id="g16"><text
         xml:space="preserve"
         style="font-size:17.6389px;font-family:Orbitron;-inkscape-font-specification:Orbitron;fill:#000000;stroke-width:0.264583"
         x="163.58379"
         y="149.13507"
         id="text8"><tspan
           id="tspan8"
           style="font-size:17.6389px;stroke-width:0.264583"
           x="163.58379"
           y="149.13507">m</tspan></text><text
         xml:space="preserve"
         style="font-size:17.6389px;font-family:Orbitron;-inkscape-font-specification:Orbitron;fill:#000000;stroke-width:0.264583"
         x="181.21321"
         y="149.45615"
         id="text9"><tspan
           id="tspan9"
           style="font-size:17.6389px;stroke-width:0.264583"
           x="181.21321"
           y="149.45615">o</tspan></text><text
         xml:space="preserve"
         style="font-size:17.6389px;font-family:Orbitron;-inkscape-font-specification:Orbitron;fill:#000000;stroke-width:0.264583"
         x="193.59529"
         y="149.29649"
         id="text10"><tspan
           id="tspan10"
           style="font-size:17.6389px;stroke-width:0.264583"
           x="193.59529"
           y="149.29649">r</tspan></text><text
         xml:space="preserve"
         style="font-size:17.6389px;font-family:Orbitron;-inkscape-font-specification:Orbitron;fill:#000000;stroke-width:0.264583"
         x="202.83043"
         y="149.1404"
         id="text11"><tspan
           id="tspan11"
           style="font-size:17.6389px;stroke-width:0.264583"
           x="202.83043"
           y="149.1404">e</tspan></text><text
         xml:space="preserve"
         style="font-size:17.6389px;font-family:Orbitron;-inkscape-font-specification:Orbitron;fill:#000000;stroke-width:0.264583"
         x="215.34204"
         y="149.26987"
         id="text12"><tspan
           id="tspan12"
           style="font-size:17.6389px;stroke-width:0.264583"
           x="215.34204"
           y="149.26987">z</tspan></text><text
         xml:space="preserve"
         style="font-size:17.6389px;font-family:Orbitron;-inkscape-font-specification:Orbitron;fill:#000000;stroke-width:0.264583"
         x="235.13742"
         y="149.41933"
         id="text14"><tspan
           id="tspan14"
           style="font-size:17.6389px;stroke-width:0.264583"
           x="235.13742"
           y="149.41933">o</tspan></text><text
         xml:space="preserve"
         style="font-size:17.6389px;font-family:Orbitron;-inkscape-font-specification:Orbitron;fill:#000000;stroke-width:0.264583"
         x="227.61942"
         y="149.42232"
         id="text15"><tspan
           id="tspan15"
           style="stroke-width:0.264583"
           x="227.61942"
           y="149.42232">.</tspan></text><text
         xml:space="preserve"
         style="font-size:17.6389px;font-family:Orbitron;-inkscape-font-specification:Orbitron;fill:#000000;stroke-width:0.264583"
         x="231.55582"
         y="149.37233"
         id="text16"><tspan
           id="tspan16"
           style="stroke-width:0.264583"
           x="231.55582"
           y="149.37233">i</tspan></text></g></g><style
     type="text/css"
     id="style1">
	.st0{fill:#FFFFFF;}
</style></svg>
